<svg width="341" height="43" viewBox="0 0 341 43" fill="none" xmlns="http://www.w3.org/2000/svg">
<path d="M4.38173 34.8855C3.14066 34.8855 2.17882 34.5414 1.49623 33.8532C0.844672 33.1649 0.51889 32.1951 0.51889 30.9438V4.89989C0.51889 3.61725 0.875699 2.64745 1.58932 1.99048C2.30293 1.30224 3.3113 0.958113 4.61443 0.958113C5.70037 0.958113 6.5536 1.1771 7.17414 1.61508C7.8257 2.02177 8.41521 2.71001 8.94267 3.67982L18.9488 21.7932H17.3199L27.2795 3.67982C27.838 2.71001 28.4275 2.02177 29.048 1.61508C29.6996 1.1771 30.5683 0.958113 31.6543 0.958113C32.8954 0.958113 33.8417 1.30224 34.4932 1.99048C35.1758 2.64745 35.5171 3.61725 35.5171 4.89989V30.9438C35.5171 32.1951 35.1913 33.1649 34.5398 33.8532C33.8882 34.5414 32.9264 34.8855 31.6543 34.8855C30.4132 34.8855 29.4514 34.5414 28.7688 33.8532C28.1172 33.1649 27.7914 32.1951 27.7914 30.9438V14.8013H28.7688L21.2758 27.9405C20.8414 28.6288 20.376 29.1449 19.8796 29.4891C19.4142 29.8332 18.7782 30.0052 17.9715 30.0052C17.1958 30.0052 16.5597 29.8332 16.0633 29.4891C15.5669 29.1449 15.117 28.6288 14.7137 27.9405L7.17414 14.7543H8.24456V30.9438C8.24456 32.1951 7.91878 33.1649 7.26722 33.8532C6.61566 34.5414 5.65383 34.8855 4.38173 34.8855Z" fill="#152C68"/>
<path d="M53.0064 34.9794C50.4622 34.9794 48.2438 34.4945 46.3512 33.5247C44.4585 32.5549 42.9848 31.1628 41.9298 29.3483C40.8749 27.5338 40.3475 25.3909 40.3475 22.9194C40.3475 21.0424 40.6422 19.3687 41.2317 17.8984C41.8213 16.3967 42.6745 15.1297 43.7915 14.0974C44.9084 13.0337 46.2426 12.236 47.7939 11.7041C49.3453 11.141 51.0828 10.8595 53.0064 10.8595C55.5506 10.8595 57.769 11.3444 59.6617 12.3142C61.5543 13.284 63.0126 14.6761 64.0364 16.4906C65.0914 18.2738 65.6188 20.4167 65.6188 22.9194C65.6188 24.7652 65.3241 26.4389 64.7345 27.9405C64.145 29.4421 63.2918 30.7248 62.1748 31.7884C61.0889 32.8208 59.7547 33.6185 58.1724 34.1817C56.621 34.7135 54.8991 34.9794 53.0064 34.9794ZM53.0064 28.8321C53.8441 28.8321 54.5888 28.6288 55.2403 28.2221C55.8919 27.7841 56.3883 27.1428 56.7296 26.2981C57.102 25.4222 57.2881 24.2959 57.2881 22.9194C57.2881 20.8234 56.8848 19.3218 56.0781 18.4145C55.2714 17.476 54.2475 17.0068 53.0064 17.0068C52.1687 17.0068 51.424 17.2101 50.7725 17.6168C50.1209 18.0235 49.609 18.6648 49.2367 19.5408C48.8643 20.3854 48.6782 21.5117 48.6782 22.9194C48.6782 24.9842 49.0815 26.4858 49.8882 27.4243C50.6949 28.3628 51.7343 28.8321 53.0064 28.8321Z" fill="#152C68"/>
<path d="M74.0026 34.8855C73.1649 34.8855 72.4512 34.7291 71.8617 34.4163C71.3033 34.1034 70.8844 33.6185 70.6052 32.9616C70.3259 32.3046 70.1863 31.4756 70.1863 30.4745V14.8951C70.1863 13.6125 70.5121 12.6427 71.1636 11.9857C71.8152 11.2975 72.746 10.9533 73.956 10.9533C75.1351 10.9533 76.0348 11.2975 76.6554 11.9857C77.3069 12.6427 77.6327 13.6125 77.6327 14.8951V25.5942H76.3296L85.3584 13.5812C85.7928 13.0181 86.3513 12.4393 87.0339 11.8449C87.7475 11.2505 88.7403 10.9533 90.0124 10.9533C90.8812 10.9533 91.5948 11.1097 92.1533 11.4226C92.7117 11.7354 93.1306 12.2203 93.4099 12.8773C93.6891 13.503 93.8287 14.332 93.8287 15.3644V30.9438C93.8287 32.1951 93.5029 33.1649 92.8514 33.8532C92.2308 34.5414 91.3155 34.8855 90.1055 34.8855C88.8955 34.8855 87.9647 34.5414 87.3131 33.8532C86.6926 33.1649 86.3823 32.1951 86.3823 30.9438V20.1977H87.6854L78.6566 32.2577C78.2533 32.8208 77.6948 33.3996 76.9812 33.9939C76.2986 34.5883 75.3057 34.8855 74.0026 34.8855ZM82.0075 8.51318C79.7425 8.51318 77.8809 8.04392 76.4227 7.10541C74.9644 6.13561 73.9405 4.89989 73.351 3.39826C73.0718 2.64745 73.0563 2.02177 73.3045 1.52122C73.5837 0.989398 74.0336 0.629632 74.6542 0.441929C75.2747 0.222941 75.8021 0.254224 76.2365 0.53578C76.6709 0.817335 77.1053 1.30224 77.5396 1.99048C78.0051 2.7413 78.5946 3.30441 79.3082 3.67982C80.0528 4.05522 80.9526 4.24293 82.0075 4.24293C83.0934 4.24293 83.9932 4.05522 84.7068 3.67982C85.4205 3.30441 86.01 2.7413 86.4754 1.99048C86.9097 1.30224 87.3441 0.817335 87.7785 0.53578C88.2439 0.254224 88.7713 0.222941 89.3609 0.441929C90.0124 0.629632 90.4623 0.989398 90.7105 1.52122C90.9898 2.02177 90.9743 2.64745 90.664 3.39826C90.0124 4.89989 88.973 6.13561 87.5458 7.10541C86.1186 8.04392 84.2725 8.51318 82.0075 8.51318Z" fill="#152C68"/>
<path d="M99.131 42.1591C98.5725 42.1591 98.1382 42.0026 97.8279 41.6898C97.5487 41.377 97.409 40.9233 97.409 40.3289V33.1493C97.409 31.8666 98.0451 31.2253 99.3172 31.2253H102.342L100.062 31.8823C101.861 29.8801 103.196 27.0958 104.064 23.5295C104.933 19.9318 105.367 15.3956 105.367 9.92096V3.49211C105.367 2.80387 105.538 2.28768 105.879 1.94356C106.252 1.56815 106.779 1.38045 107.462 1.38045H125.054C125.705 1.38045 126.217 1.56815 126.59 1.94356C126.962 2.28768 127.148 2.80387 127.148 3.49211V32.7739L125.612 31.2253H129.848C130.468 31.2253 130.949 31.3974 131.29 31.7415C131.632 32.0543 131.802 32.5236 131.802 33.1493V40.3289C131.802 41.549 131.228 42.1591 130.08 42.1591C129.491 42.1591 129.041 42.0026 128.731 41.6898C128.451 41.377 128.312 40.9233 128.312 40.3289V34.4632H100.853V40.3289C100.853 41.549 100.279 42.1591 99.131 42.1591ZM104.623 31.2253H123.285V4.61833H108.951V10.2025C108.951 15.2392 108.594 19.4469 107.881 22.8256C107.198 26.2042 106.112 29.0042 104.623 31.2253Z" fill="#152C68"/>
<path d="M138.472 34.7917C137.852 34.7917 137.371 34.6196 137.03 34.2755C136.719 33.9314 136.564 33.4465 136.564 32.8208V13.2527C136.564 12.5957 136.719 12.1108 137.03 11.798C137.371 11.4852 137.852 11.3287 138.472 11.3287C139.062 11.3287 139.512 11.4852 139.822 11.798C140.163 12.1108 140.334 12.5957 140.334 13.2527V21.1363H152.667V13.2527C152.667 12.5957 152.822 12.1108 153.133 11.798C153.474 11.4852 153.939 11.3287 154.529 11.3287C155.118 11.3287 155.584 11.4852 155.925 11.798C156.266 12.1108 156.437 12.5957 156.437 13.2527V32.8208C156.437 33.4465 156.266 33.9314 155.925 34.2755C155.584 34.6196 155.118 34.7917 154.529 34.7917C153.939 34.7917 153.474 34.6196 153.133 34.2755C152.822 33.9314 152.667 33.4465 152.667 32.8208V24.2334H140.334V32.8208C140.334 33.4465 140.179 33.9314 139.869 34.2755C139.558 34.6196 139.093 34.7917 138.472 34.7917Z" fill="#152C68"/>
<path d="M174.118 34.8855C171.729 34.8855 169.666 34.4163 167.928 33.4778C166.222 32.508 164.888 31.1471 163.926 29.3952C162.995 27.6433 162.53 25.5473 162.53 23.1071C162.53 20.7296 162.995 18.6648 163.926 16.9129C164.857 15.1297 166.129 13.7376 167.742 12.7365C169.387 11.7354 171.279 11.2349 173.42 11.2349C174.94 11.2349 176.306 11.5008 177.516 12.0326C178.726 12.5332 179.75 13.2683 180.587 14.2381C181.456 15.2079 182.108 16.3811 182.542 17.7576C183.007 19.1341 183.24 20.6826 183.24 22.4033C183.24 22.9038 183.1 23.2792 182.821 23.5295C182.542 23.7485 182.139 23.858 181.611 23.858H165.415V21.3709H180.727L179.982 21.9809C179.982 20.2916 179.734 18.8682 179.238 17.7107C178.741 16.5219 178.012 15.6146 177.05 14.989C176.119 14.3633 174.94 14.0504 173.513 14.0504C171.931 14.0504 170.581 14.4258 169.464 15.1767C168.378 15.8962 167.556 16.9129 166.998 18.2268C166.439 19.5095 166.16 21.0111 166.16 22.7317V23.0133C166.16 25.8914 166.842 28.0813 168.208 29.5829C169.604 31.0845 171.574 31.8354 174.118 31.8354C175.173 31.8354 176.212 31.6946 177.236 31.413C178.291 31.1315 179.315 30.6622 180.308 30.0052C180.742 29.7237 181.13 29.5986 181.472 29.6298C181.844 29.6298 182.139 29.7393 182.356 29.9583C182.573 30.146 182.713 30.3963 182.775 30.7091C182.868 30.9907 182.837 31.3035 182.682 31.6477C182.557 31.9918 182.294 32.289 181.89 32.5392C180.867 33.2901 179.656 33.8688 178.26 34.2755C176.864 34.6822 175.483 34.8855 174.118 34.8855Z" fill="#152C68"/>
<path d="M191.058 34.4632C190.438 34.4632 189.957 34.2911 189.616 33.947C189.274 33.6029 189.104 33.118 189.104 32.4923V13.6281C189.104 13.0024 189.274 12.5175 189.616 12.1734C189.957 11.8293 190.438 11.6572 191.058 11.6572H200.134C201.933 11.6572 203.407 11.8918 204.555 12.3611C205.703 12.7991 206.556 13.4717 207.115 14.3789C207.673 15.2549 207.953 16.3498 207.953 17.6637C207.953 19.1028 207.441 20.3229 206.417 21.324C205.424 22.325 204.121 22.9194 202.507 23.1071V22.4971C204.431 22.5597 205.936 23.1071 207.022 24.1395C208.139 25.1719 208.697 26.5171 208.697 28.1751C208.697 30.1147 207.984 31.6477 206.556 32.7739C205.129 33.9001 203.112 34.4632 200.506 34.4632H191.058ZM192.687 31.8823H200.367C201.887 31.8823 203.05 31.5538 203.857 30.8968C204.695 30.2086 205.114 29.2388 205.114 27.9874C205.114 26.7361 204.695 25.7819 203.857 25.125C203.05 24.468 201.887 24.1395 200.367 24.1395H192.687V31.8823ZM192.687 21.5586H199.948C201.344 21.5586 202.43 21.2301 203.205 20.5731C204.012 19.9162 204.415 19.0089 204.415 17.8514C204.415 16.6939 204.012 15.8023 203.205 15.1767C202.43 14.551 201.344 14.2381 199.948 14.2381H192.687V21.5586Z" fill="#152C68"/>
<path d="M216.464 34.7917C215.843 34.7917 215.362 34.6196 215.021 34.2755C214.711 33.9314 214.555 33.4465 214.555 32.8208V13.2527C214.555 12.5957 214.711 12.1108 215.021 11.798C215.362 11.4852 215.843 11.3287 216.464 11.3287C217.053 11.3287 217.503 11.4852 217.813 11.798C218.155 12.1108 218.325 12.5957 218.325 13.2527V21.1363H230.658V13.2527C230.658 12.5957 230.813 12.1108 231.124 11.798C231.465 11.4852 231.93 11.3287 232.52 11.3287C233.109 11.3287 233.575 11.4852 233.916 11.798C234.257 12.1108 234.428 12.5957 234.428 13.2527V32.8208C234.428 33.4465 234.257 33.9314 233.916 34.2755C233.575 34.6196 233.109 34.7917 232.52 34.7917C231.93 34.7917 231.465 34.6196 231.124 34.2755C230.813 33.9314 230.658 33.4465 230.658 32.8208V24.2334H218.325V32.8208C218.325 33.4465 218.17 33.9314 217.86 34.2755C217.55 34.6196 217.084 34.7917 216.464 34.7917Z" fill="#152C68"/>
<path d="M243.593 34.7917C243.251 34.7917 242.941 34.7135 242.662 34.5571C242.413 34.4319 242.212 34.2129 242.057 33.9001C241.933 33.5873 241.871 33.1962 241.871 32.7269V13.2058C241.871 12.5801 242.026 12.1108 242.336 11.798C242.646 11.4852 243.065 11.3287 243.593 11.3287C244.151 11.3287 244.57 11.4852 244.849 11.798C245.159 12.1108 245.315 12.5801 245.315 13.2058V30.8499H244.151L257.694 12.5488C257.942 12.2047 258.237 11.9231 258.578 11.7041C258.92 11.4539 259.354 11.3287 259.882 11.3287C260.254 11.3287 260.564 11.3913 260.812 11.5164C261.061 11.6416 261.247 11.8606 261.371 12.1734C261.526 12.455 261.604 12.846 261.604 13.3466V32.9147C261.604 33.509 261.448 33.9783 261.138 34.3224C260.859 34.6353 260.44 34.7917 259.882 34.7917C259.323 34.7917 258.889 34.6353 258.578 34.3224C258.299 33.9783 258.16 33.509 258.16 32.9147V15.2236H259.323L245.733 33.5716C245.516 33.8845 245.237 34.166 244.896 34.4163C244.585 34.6666 244.151 34.7917 243.593 34.7917Z" fill="#152C68"/>
<path d="M285.431 34.7917C284.842 34.7917 284.377 34.6196 284.035 34.2755C283.725 33.9001 283.57 33.3996 283.57 32.7739V25.2188C282.701 25.7506 281.755 26.1573 280.731 26.4389C279.738 26.6891 278.683 26.8143 277.566 26.8143C274.339 26.8143 271.95 26.0478 270.399 24.5149C268.848 22.9507 268.072 20.5888 268.072 17.4291V13.2527C268.072 12.627 268.227 12.1578 268.537 11.8449C268.879 11.5008 269.36 11.3287 269.98 11.3287C270.57 11.3287 271.02 11.5008 271.33 11.8449C271.671 12.1578 271.842 12.627 271.842 13.2527V17.1476C271.842 19.4 272.323 21.0424 273.284 22.0748C274.277 23.1071 275.86 23.6233 278.032 23.6233C279.149 23.6233 280.141 23.4982 281.01 23.2479C281.879 22.9976 282.717 22.591 283.523 22.0278V13.2996C283.523 11.9857 284.144 11.3287 285.385 11.3287C286.005 11.3287 286.471 11.5008 286.781 11.8449C287.122 12.189 287.293 12.6739 287.293 13.2996V32.7739C287.293 33.3996 287.138 33.9001 286.828 34.2755C286.517 34.6196 286.052 34.7917 285.431 34.7917Z" fill="#152C68"/>
<path d="M304.176 34.8855C301.973 34.8855 300.065 34.4006 298.451 33.4308C296.838 32.461 295.581 31.1002 294.682 29.3483C293.813 27.5651 293.379 25.4691 293.379 23.0602C293.379 21.2457 293.627 19.619 294.123 18.1799C294.62 16.7096 295.349 15.4582 296.311 14.4258C297.272 13.3935 298.405 12.6114 299.708 12.0796C301.042 11.5164 302.531 11.2349 304.176 11.2349C306.379 11.2349 308.287 11.7198 309.9 12.6896C311.514 13.6594 312.755 15.0359 313.624 16.8191C314.523 18.571 314.973 20.6514 314.973 23.0602C314.973 24.8747 314.725 26.5014 314.229 27.9405C313.732 29.3796 313.003 30.6309 312.041 31.6946C311.079 32.727 309.931 33.5247 308.597 34.0878C307.294 34.6196 305.82 34.8855 304.176 34.8855ZM304.176 31.8354C305.572 31.8354 306.798 31.4912 307.853 30.803C308.907 30.1147 309.714 29.1137 310.273 27.7997C310.862 26.4858 311.157 24.906 311.157 23.0602C311.157 20.2134 310.521 18.0391 309.249 16.5375C308.008 15.0359 306.317 14.2851 304.176 14.2851C302.749 14.2851 301.508 14.6292 300.453 15.3174C299.429 15.9744 298.622 16.9598 298.033 18.2738C297.474 19.5564 297.195 21.1519 297.195 23.0602C297.195 25.8758 297.831 28.05 299.103 29.5829C300.375 31.0845 302.066 31.8354 304.176 31.8354Z" fill="#152C68"/>
<path d="M322.997 34.7917C322.376 34.7917 321.896 34.6196 321.554 34.2755C321.244 33.9314 321.089 33.4465 321.089 32.8208V13.3935C321.089 12.7365 321.244 12.2516 321.554 11.9388C321.896 11.5947 322.376 11.4226 322.997 11.4226C323.587 11.4226 324.036 11.5947 324.347 11.9388C324.688 12.2516 324.859 12.7365 324.859 13.3935V21.1832H329.094L335.982 12.2673C336.292 11.8918 336.633 11.6572 337.006 11.5634C337.378 11.4382 337.719 11.4382 338.029 11.5634C338.371 11.6572 338.635 11.8449 338.821 12.1265C339.038 12.3767 339.146 12.6896 339.146 13.065C339.146 13.4404 339.007 13.8315 338.728 14.2381L332.165 22.7317L331.095 21.5117C331.964 21.6055 332.724 21.8245 333.375 22.1686C334.027 22.5127 334.648 23.0289 335.237 23.7172C335.827 24.4054 336.463 25.3596 337.145 26.5797L340.496 32.1638C340.713 32.6018 340.791 32.9929 340.729 33.337C340.698 33.6811 340.543 33.9939 340.263 34.2755C339.984 34.5258 339.658 34.6822 339.286 34.7448C338.945 34.8073 338.603 34.7604 338.262 34.604C337.921 34.4476 337.611 34.166 337.331 33.7593L333.655 27.5651C333.127 26.6891 332.631 26.0165 332.165 25.5473C331.7 25.0467 331.173 24.7026 330.583 24.5149C329.994 24.3272 329.264 24.2334 328.396 24.2334H324.859V32.8208C324.859 33.4465 324.688 33.9314 324.347 34.2755C324.036 34.6196 323.587 34.7917 322.997 34.7917Z" fill="#152C68"/>
</svg>
